<svg width="678" height="98" viewBox="0 0 678 98" fill="none" xmlns="http://www.w3.org/2000/svg">
    <path d="M37.7963 0H0V98H37.7963V0Z" fill="black"/>
    <path d="M23.8466 70.4421H29.3971V87.4591H24.9992L17.9019 79.7847C17.2751 79.1174 16.7392 78.6727 16.2944 78.4501C15.8495 78.2279 15.4148 78.1164 14.9902 78.1164C14.4644 78.1164 14.06 78.2984 13.7769 78.6624C13.4736 79.0063 13.322 79.5117 13.322 80.1791C13.322 80.8263 13.4938 81.433 13.8376 81.9991C14.1814 82.5656 14.6666 83.0001 15.2935 83.3034L12.5941 88.7027C11.0775 87.894 9.88453 86.711 9.01508 85.1537C8.12537 83.5969 7.68054 81.7163 7.68054 79.5117C7.68054 77.8336 7.95352 76.3473 8.49946 75.0527C9.04541 73.7587 9.82387 72.7474 10.8349 72.0194C11.8459 71.2914 13.0086 70.9274 14.3229 70.9274C15.4956 70.9274 16.5977 71.1803 17.6289 71.6857C18.6399 72.1711 19.7925 73.1319 21.0866 74.5674L23.8466 77.6007V70.4421ZM29.8824 59.3583C29.8824 61.2389 29.4476 62.9073 28.5782 64.3633C27.6884 65.7992 26.4146 66.9318 24.7565 67.7606C23.0782 68.5698 21.0866 68.9739 18.7814 68.9739C16.4763 68.9739 14.4947 68.5698 12.8367 67.7606C11.1584 66.9318 9.88453 65.7992 9.01508 64.3633C8.12537 62.9073 7.68054 61.2389 7.68054 59.3583C7.68054 57.4776 8.12537 55.8195 9.01508 54.3836C9.88453 52.9276 11.1584 51.7955 12.8367 50.9863C14.4947 50.1575 16.4763 49.7426 18.7814 49.7426C21.0866 49.7426 23.0782 50.1575 24.7565 50.9863C26.4146 51.7955 27.6884 52.9276 28.5782 54.3836C29.4476 55.8195 29.8824 57.4776 29.8824 59.3583ZM24.1499 59.3583C24.1499 57.7408 22.3604 56.9316 18.7814 56.9316C15.2025 56.9316 13.413 57.7408 13.413 59.3583C13.413 60.9762 15.2025 61.7849 18.7814 61.7849C22.3604 61.7849 24.1499 60.9762 24.1499 59.3583ZM23.8466 31.2815H29.3971V48.2983H24.9992L17.9019 40.6241C17.2751 39.9568 16.7392 39.5119 16.2944 39.2894C15.8495 39.067 15.4148 38.9558 14.9902 38.9558C14.4644 38.9558 14.06 39.1378 13.7769 39.5018C13.4736 39.8455 13.322 40.3511 13.322 41.0185C13.322 41.6655 13.4938 42.2722 13.8376 42.8385C14.1814 43.4047 14.6666 43.8394 15.2935 44.1428L12.5941 49.5419C11.0775 48.7332 9.88453 47.5502 9.01508 45.9931C8.12537 44.436 7.68054 42.5553 7.68054 40.3511C7.68054 38.6727 7.95352 37.1863 8.49946 35.8921C9.04541 34.5979 9.82387 33.5868 10.8349 32.8588C11.8459 32.1308 13.0086 31.7668 14.3229 31.7668C15.4956 31.7668 16.5977 32.0195 17.6289 32.5251C18.6399 33.0105 19.7925 33.971 21.0866 35.4068L23.8466 38.4401V31.2815ZM29.8824 20.1977C29.8824 22.0784 29.4476 23.7467 28.5782 25.2027C27.6884 26.6384 26.4146 27.7709 24.7565 28.6C23.0782 29.4089 21.0866 29.8134 18.7814 29.8134C16.4763 29.8134 14.4947 29.4089 12.8367 28.6C11.1584 27.7709 9.88453 26.6384 9.01508 25.2027C8.12537 23.7467 7.68054 22.0784 7.68054 20.1977C7.68054 18.317 8.12537 16.6588 9.01508 15.223C9.88453 13.767 11.1584 12.6346 12.8367 11.8257C14.4947 10.9966 16.4763 10.582 18.7814 10.582C21.0866 10.582 23.0782 10.9966 24.7565 11.8257C26.4146 12.6346 27.6884 13.767 28.5782 15.223C29.4476 16.6588 29.8824 18.317 29.8824 20.1977ZM24.1499 20.1977C24.1499 18.5799 22.3604 17.771 18.7814 17.771C15.2025 17.771 13.413 18.5799 13.413 20.1977C13.413 21.8154 15.2025 22.6244 18.7814 22.6244C22.3604 22.6244 24.1499 21.8154 24.1499 20.1977Z" fill="white"/>
    <path d="M65.9036 44.6725C63.5071 44.6725 61.1908 44.6725 58.7942 44.6725C58.7942 50.6591 58.7942 56.5662 58.7942 62.4732C58.7942 68.3803 58.7942 74.2874 58.7942 80.2742C61.1908 80.2742 63.5071 80.2742 65.9036 80.2742C65.9036 74.2874 65.9036 68.3803 65.9036 62.4732C65.9036 56.5662 70.6968 51.7768 76.6079 51.7768C76.6079 49.4621 76.6079 47.0672 76.6079 44.6725C72.454 44.6725 69.1788 45.79 65.9036 48.2646C65.9036 47.0672 65.9036 45.8698 65.9036 44.6725ZM118.495 64.2293C118.574 63.6707 118.574 63.0323 118.574 62.4732C118.574 60.6374 118.335 58.8015 117.776 57.1252C115.539 49.9409 108.749 44.6725 100.84 44.6725C94.4501 44.6725 88.8586 48.0252 85.7429 53.054C84.9441 54.3313 84.3053 55.6884 83.8256 57.1252C83.5862 58.003 83.4262 58.8813 83.2666 59.7591C83.107 60.6374 83.0272 61.5156 83.0272 62.4732C83.0272 63.0323 83.107 63.6707 83.107 64.2293C83.9857 73.2495 91.5743 80.2742 100.84 80.2742C107.152 80.2742 112.743 76.9217 115.858 71.8924L108.989 69.3384C107.071 71.653 104.116 73.0899 100.84 73.0899C95.5686 73.0899 91.1749 69.2586 90.2962 64.2293H118.495ZM92.613 55.6086C94.6097 53.2934 97.5657 51.7768 100.84 51.7768C104.755 51.7768 108.19 53.9323 110.027 57.1252H91.5743C91.8939 56.646 92.2136 56.0874 92.613 55.6086ZM146.296 76.4424C154.125 84.4252 167.625 78.9172 167.625 67.7419C167.625 61.8348 167.625 55.9278 167.625 50.0207C167.625 48.2646 167.625 46.4286 167.625 44.6725C165.308 44.6725 162.912 44.6725 160.515 44.6725C160.515 46.4286 160.515 48.2646 160.515 50.0207C160.515 55.9278 160.515 61.8348 160.515 67.7419C160.515 70.6954 158.119 73.0899 155.243 73.0899C152.288 73.0899 149.891 70.6954 149.891 67.7419C149.891 61.8348 149.891 55.9278 149.891 50.0207C149.891 48.2646 149.891 46.4286 149.891 44.6725C147.495 44.6725 145.098 44.6725 142.782 44.6725C142.782 46.4286 142.782 48.2646 142.782 50.0207C142.782 55.9278 142.782 61.8348 142.782 67.7419C142.782 70.6954 140.385 73.0899 137.43 73.0899C134.474 73.0899 132.077 70.6954 132.077 67.7419C132.077 61.8348 132.077 55.9278 132.077 50.0207C132.077 48.2646 132.077 46.4286 132.077 44.6725C129.681 44.6725 127.365 44.6725 124.968 44.6725C124.968 46.4286 124.968 48.2646 124.968 50.0207C124.968 55.9278 124.968 61.8348 124.968 67.7419C124.968 78.9172 138.548 84.4252 146.296 76.4424ZM181.117 80.2742V44.6725H174.008V80.2742H181.117ZM194.585 80.1944V60.5576C194.585 55.6086 198.579 51.697 203.452 51.697C208.404 51.697 212.398 55.6086 212.398 60.5576V80.1944H219.508V60.5576C219.508 51.697 212.319 44.5128 203.452 44.5128C194.665 44.5128 187.475 51.697 187.475 60.5576V80.1944H194.585ZM227.903 70.3758C236.29 87.1394 261.613 81.1525 261.613 62.4732C261.613 50.6591 261.613 38.8453 261.613 27.0312H254.503C254.503 34.0558 254.503 41.1602 254.503 48.1848C239.486 37.0093 219.515 53.6126 227.903 70.3758ZM233.175 62.4732C233.175 56.5662 237.888 51.7768 243.799 51.7768C249.71 51.7768 254.503 56.5662 254.503 62.4732C254.503 68.3005 249.71 73.0899 243.799 73.0899C237.888 73.0899 233.175 68.3005 233.175 62.4732Z" fill="white"/>
    <path d="M141.79 34.9991V17.7711H138.312V34.9991H141.79ZM157.289 22.7154C158.109 21.9042 158.93 21.093 159.75 20.2819C154.279 14.8739 144.901 18.6981 144.901 26.3464C144.901 34.0334 154.279 37.8576 159.75 32.4496C158.93 31.6384 158.109 30.8273 157.289 30.0161C154.006 33.2608 148.378 30.9431 148.378 26.3464C148.378 21.7497 154.006 19.4707 157.289 22.7154ZM180.251 26.3851C180.251 21.6338 176.383 17.7711 171.576 17.7711C166.769 17.7711 162.861 21.6338 162.861 26.3851C162.861 31.1363 166.769 34.9604 171.576 34.9604C176.383 34.9604 180.251 31.1363 180.251 26.3851ZM166.339 26.3851C166.339 23.5266 168.684 21.2089 171.576 21.2089C174.429 21.2089 176.773 23.5266 176.773 26.3851C176.773 29.2435 174.429 31.5226 171.576 31.5226C168.684 31.5226 166.339 29.2435 166.339 26.3851ZM186.857 17.7711C185.685 17.7711 184.551 17.7711 183.379 17.7711C183.379 20.6681 183.379 23.5266 183.379 26.3851C183.379 29.2435 183.379 32.102 183.379 34.9991C184.551 34.9991 185.685 34.9991 186.857 34.9991C186.857 32.102 186.857 29.2435 186.857 26.3851C186.857 23.5266 189.202 21.2089 192.094 21.2089C192.094 20.0887 192.094 18.9299 192.094 17.7711C190.062 17.7711 188.459 18.3118 186.857 19.5093C186.857 18.9299 186.857 18.3505 186.857 17.7711ZM207.426 17.7324V27.2349C207.426 29.6298 205.473 31.5226 203.05 31.5226C200.666 31.5226 198.712 29.6298 198.712 27.2349V17.7324H195.234V27.2349C195.234 31.5226 198.751 34.9991 203.05 34.9991C207.387 34.9991 210.905 31.5226 210.905 27.2349V17.7324H207.426ZM224.468 19.5865C220.678 15.7624 214.034 18.4277 214.034 23.797C214.034 26.6941 214.034 32.102 214.034 34.9604C215.207 34.9604 216.34 34.9604 217.513 34.9604C217.513 32.102 217.513 26.6941 217.513 23.797C217.513 22.4064 218.685 21.2475 220.131 21.2475C221.577 21.2475 222.749 22.4064 222.749 23.797C222.749 26.6941 222.749 32.102 222.749 34.9604C223.335 34.9604 223.882 34.9604 224.468 34.9604C225.054 34.9604 225.641 34.9604 226.227 34.9604C226.227 32.102 226.227 26.6941 226.227 23.797C226.227 22.4064 227.399 21.2475 228.845 21.2475C230.252 21.2475 231.424 22.4064 231.424 23.797C231.424 26.6941 231.424 32.102 231.424 34.9604C232.597 34.9604 233.769 34.9604 234.903 34.9604C234.903 32.102 234.903 26.6941 234.903 23.797C234.903 18.4277 228.298 15.7624 224.468 19.5865Z" fill="white"/>
    <path d="M96.0222 19.5561C92.2299 15.7147 85.5839 18.3921 85.5839 23.7855C85.5839 26.6956 85.5839 32.1278 85.5839 34.9991C86.7569 34.9991 87.8904 34.9991 89.0635 34.9991C89.0635 32.1278 89.0635 26.6956 89.0635 23.7855C89.0635 22.3886 90.2361 21.2245 91.6826 21.2245C93.1291 21.2245 94.3017 22.3886 94.3017 23.7855C94.3017 26.6956 94.3017 32.1278 94.3017 34.9991C94.8883 34.9991 95.4356 34.9991 96.0222 34.9991C96.6082 34.9991 97.1948 34.9991 97.7813 34.9991C97.7813 32.1278 97.7813 26.6956 97.7813 23.7855C97.7813 22.3886 98.9539 21.2245 100.4 21.2245C101.808 21.2245 102.98 22.3886 102.98 23.7855C102.98 26.6956 102.98 32.1278 102.98 34.9991C104.154 34.9991 105.327 34.9991 106.46 34.9991C106.46 32.1278 106.46 26.6956 106.46 23.7855C106.46 18.3921 99.8531 15.7147 96.0222 19.5561ZM127.376 21.1858H135.195V17.7324H127.376C124.483 17.7324 122.137 20.0605 122.137 22.9318C122.137 25.4539 123.935 27.5492 126.36 28.0148C126.672 28.0925 127.024 28.0925 127.376 28.0925H131.207C132.184 28.0925 132.966 28.8685 132.966 29.8385C132.966 30.7697 132.184 31.5458 131.207 31.5458H123.388V34.9991H131.207C134.1 34.9991 136.446 32.7098 136.446 29.8385C136.446 27.3164 134.647 25.2211 132.224 24.7555C131.91 24.6779 131.559 24.6391 131.207 24.6391H127.376C126.398 24.6391 125.617 23.8631 125.617 22.9318C125.617 21.9618 126.398 21.1858 127.376 21.1858Z" fill="white"/>
    <path d="M118.925 17.7324V27.2349C118.925 29.6298 116.947 31.5226 114.494 31.5226C112.081 31.5226 110.102 29.6298 110.102 27.2349V17.7324H106.582V27.2349C106.582 31.5226 110.142 34.9991 114.494 34.9991C118.886 34.9991 122.447 31.5226 122.447 27.2349V17.7324H118.925Z" fill="white"/>
</svg>
