<svg width="32" height="32" viewBox="0 0 32 32" fill="none" xmlns="http://www.w3.org/2000/svg">
    <path d="M29.0237 8H23.397V11.2835H29.0237V8Z" fill="#29AB70"/>
    <path d="M29.0237 12.573H23.397V15.8565H29.0237V12.573Z" fill="url(#paint0_linear)"/>
    <path d="M29.0237 17.1434H23.397V20.427H29.0237V17.1434Z" fill="url(#paint1_linear)"/>
    <path d="M8.62664 21.7164H3V25H8.62664V21.7164Z" fill="url(#paint2_linear)"/>
    <path d="M15.425 21.7164H9.79834V25H15.425V21.7164Z" fill="url(#paint3_linear)"/>
    <path d="M22.2253 21.7164H16.5986V25H22.2253V21.7164Z" fill="url(#paint4_linear)"/>
    <path d="M29.0237 21.7164H23.397V25H29.0237V21.7164Z" fill="url(#paint5_linear)"/>
    <path d="M22.2253 17.1434H16.5986V20.427H22.2253V17.1434Z" fill="url(#paint6_linear)"/>
    <path d="M15.425 17.1434H9.79834V20.427H15.425V17.1434Z" fill="url(#paint7_linear)"/>
    <path d="M15.425 12.573H9.79834V15.8565H15.425V12.573Z" fill="url(#paint8_linear)"/>
    <defs>
        <linearGradient id="paint0_linear" x1="26.5764" y1="16.2871" x2="25.8444" y2="12.1402" gradientUnits="userSpaceOnUse">
            <stop stop-color="#2C8C9D"/>
            <stop offset="0.04" stop-color="#298E9A"/>
            <stop offset="0.39" stop-color="#129C83"/>
            <stop offset="0.72" stop-color="#05A475"/>
            <stop offset="1" stop-color="#00A770"/>
        </linearGradient>
        <linearGradient id="paint1_linear" x1="23.3131" y1="20.2615" x2="29.1076" y2="17.3089" gradientUnits="userSpaceOnUse">
            <stop stop-color="#2839BA"/>
            <stop offset="1" stop-color="#148CB3"/>
        </linearGradient>
        <linearGradient id="paint2_linear" x1="3" y1="23.3571" x2="8.62664" y2="23.3571" gradientUnits="userSpaceOnUse">
            <stop stop-color="#F6A500"/>
            <stop offset="1" stop-color="#F29100"/>
        </linearGradient>
        <linearGradient id="paint3_linear" x1="9.79834" y1="23.3571" x2="15.425" y2="23.3571" gradientUnits="userSpaceOnUse">
            <stop stop-color="#F29100"/>
            <stop offset="1" stop-color="#D12F5F"/>
        </linearGradient>
        <linearGradient id="paint4_linear" x1="16.5986" y1="23.3571" x2="22.2253" y2="23.3571" gradientUnits="userSpaceOnUse">
            <stop stop-color="#B4197C"/>
            <stop offset="1" stop-color="#472EAD"/>
        </linearGradient>
        <linearGradient id="paint5_linear" x1="23.397" y1="23.3571" x2="29.0237" y2="23.3571" gradientUnits="userSpaceOnUse">
            <stop stop-color="#2839BA"/>
            <stop offset="1" stop-color="#3072B7"/>
        </linearGradient>
        <linearGradient id="paint6_linear" x1="16.3766" y1="19.6724" x2="22.4451" y2="17.898" gradientUnits="userSpaceOnUse">
            <stop stop-color="#B4197C"/>
            <stop offset="1" stop-color="#373AAC"/>
        </linearGradient>
        <linearGradient id="paint7_linear" x1="9.60119" y1="17.6896" x2="15.6244" y2="19.8808" gradientUnits="userSpaceOnUse">
            <stop stop-color="#FFCB00"/>
            <stop offset="1" stop-color="#D12F5F"/>
        </linearGradient>
        <linearGradient id="paint8_linear" x1="10.2742" y1="12.0563" x2="14.9491" y2="16.3709" gradientUnits="userSpaceOnUse">
            <stop stop-color="#FFCF00"/>
            <stop offset="1" stop-color="#ED743B"/>
        </linearGradient>
    </defs>
</svg>
